<svg width="71" height="10" fill="none" xmlns="http://www.w3.org/2000/svg"><circle cx="4.837" cy="4.837" r="4.535" stroke="#38CB89" stroke-width=".605"/><circle cx="4.837" cy="4.837" r="3.023" fill="#38CB89"/><path d="m70.7 4.838-3.472-2.004v4.008L70.7 4.838Zm-58 .347h.69v-.694h-.69v.694Zm2.07 0h1.382v-.694H14.77v.694Zm2.763 0h1.38v-.694h-1.38v.694Zm2.761 0h1.381v-.694h-1.38v.694Zm2.762 0h1.381v-.694h-1.38v.694Zm2.762 0H27.2v-.694h-1.38v.694Zm2.762 0h1.381v-.694h-1.38v.694Zm2.762 0h1.381v-.694h-1.38v.694Zm2.762 0h1.38v-.694h-1.38v.694Zm2.762 0h1.38v-.694h-1.38v.694Zm2.762 0h1.38v-.694h-1.38v.694Zm2.762 0h1.38v-.694h-1.38v.694Zm2.762 0h1.38v-.694h-1.38v.694Zm2.761 0h1.382v-.694h-1.382v.694Zm2.762 0h1.381v-.694h-1.38v.694Zm2.762 0h1.381v-.694h-1.38v.694Zm2.762 0h1.381v-.694H56.2v.694Zm2.762 0h1.381v-.694h-1.38v.694Zm2.762 0h1.381v-.694h-1.381v.694Zm2.762 0h1.38v-.694h-1.38v.694Zm2.762 0h1.38v-.694h-1.38v.694Z" fill="#38CB89"/></svg>