<svg width="13" height="13" fill="none" xmlns="http://www.w3.org/2000/svg"><path d="M8.667 6.987v2.275c0 1.896-.759 2.655-2.654 2.655H3.737c-1.895 0-2.654-.759-2.654-2.655V6.987c0-1.895.759-2.654 2.654-2.654h2.276c1.895 0 2.654.759 2.654 2.654Z" stroke="#54565B" stroke-linecap="round" stroke-linejoin="round"/><path d="M11.917 3.737v2.276c0 1.895-.759 2.654-2.655 2.654h-.595v-1.68c0-1.895-.759-2.654-2.654-2.654h-1.68v-.596c0-1.895.759-2.654 2.654-2.654h2.275c1.896 0 2.655.759 2.655 2.654Z" stroke="#54565B" stroke-linecap="round" stroke-linejoin="round"/></svg>