<svg width="24" height="24" fill="none" xmlns="http://www.w3.org/2000/svg"><path d="M9.5 4h-4A1.5 1.5 0 0 0 4 5.5v4A1.5 1.5 0 0 0 5.5 11h4A1.5 1.5 0 0 0 11 9.5v-4A1.5 1.5 0 0 0 9.5 4Z" fill="#9FA19C"/><path opacity=".3" fill-rule="evenodd" clip-rule="evenodd" d="M5.5 13h4a1.5 1.5 0 0 1 1.5 1.5v4A1.5 1.5 0 0 1 9.5 20h-4A1.5 1.5 0 0 1 4 18.5v-4A1.5 1.5 0 0 1 5.5 13Zm9-9h4A1.5 1.5 0 0 1 20 5.5v4a1.5 1.5 0 0 1-1.5 1.5h-4A1.5 1.5 0 0 1 13 9.5v-4A1.5 1.5 0 0 1 14.5 4Zm0 9h4a1.5 1.5 0 0 1 1.5 1.5v4a1.5 1.5 0 0 1-1.5 1.5h-4a1.5 1.5 0 0 1-1.5-1.5v-4a1.5 1.5 0 0 1 1.5-1.5Z" fill="#9FA19C"/></svg>