<svg width="24" height="22" fill="none" xmlns="http://www.w3.org/2000/svg"><path d="M23.939 9.822c-1.505 9.437-8.395 10.875-8.395 10.875-8.93 2.584-12.46-5.975-12.46-5.975 4.898 8.074 12.028 5.572 12.028 5.572-1.296.162-5.473-5.168-5.473-5.168-4.682-5.249-9.29-3.15-9.29-3.15 3.744 12.92 14.763 9.61 14.763 9.61C23 18.71 23.868 11.137 23.959 9.836l-.02-.014Z" fill="#9FA19C"/><path d="M8.918 12.946c-.288-.082 4.213-2.302 4.213-2.302v-.283a20.787 20.787 0 0 0-1.29-.421v-.668c2.954.702 3.057-3.433 3.057-3.433-1.833.125-2.682.775-3.058 1.473V6.144c2.413-1.681-.353-4.634-.353-4.634-2.13 2.593-.858 4.042-.191 4.556v.892c-.47-.582-1.358-1.048-3.032-1 0 0 .397 3.844 3.032 3.21v.622a20.118 20.118 0 0 0-7.73-.498v-.554c2.954.701 3.057-3.434 3.057-3.434-1.833.126-2.682.775-3.058 1.473V5.61C5.978 3.928 3.212.976 3.212.976c-2.13 2.592-.858 4.041-.19 4.556v.891c-.47-.581-1.358-1.047-3.032-.999 0 0 .396 3.844 3.031 3.209v.738c-1.899.307-3.033.787-3.033.787l.107.808c5.51-.888 8.823 1.98 8.823 1.98Z" fill="#9FA19C"/><path d="M16.66 5.96s.395 3.843 3.03 3.208v.489c-5.009.691-10.473 3.808-10.473 3.808 6.08 7.656 6.793 6.75 6.793 6.75 6.3-1.724 7.79-10.412 7.79-10.412-1.08-.302-2.301-.34-3.565-.211v-.32c2.955.702 3.058-3.433 3.058-3.433-1.833.126-2.682.775-3.058 1.473V6.145c2.413-1.682-.352-4.634-.352-4.634-2.131 2.592-.86 4.041-.192 4.556v.891c-.469-.581-1.357-1.047-3.031-.998Z" fill="#DEDDDC"/></svg>