<svg width="21" height="22" viewBox="0 0 21 22" fill="none" xmlns="http://www.w3.org/2000/svg">
<path fill-rule="evenodd" clip-rule="evenodd" d="M16.3456 11.3175H18.2316C19.2732 11.3175 20.1176 12.162 20.1176 13.2037C20.1176 14.2454 19.2732 15.0898 18.2316 15.0898H1.88603C0.844404 15.0898 0 14.2454 0 13.2037C0 12.162 0.844404 11.3175 1.88603 11.3175H3.77206L4.47401 4.99962C4.7902 2.15371 7.19557 0.000671387 10.0588 0.000671387C12.9221 0.000671387 15.3274 2.15371 15.6436 4.99962L16.3456 11.3175Z" fill="#C9C8C6"/>
<path opacity="0.3" d="M12.5724 18.8603C12.5724 17.4713 11.4465 16.3454 10.0577 16.3454C8.66884 16.3454 7.54297 17.4713 7.54297 18.8603C7.54297 20.2492 8.66884 21.3751 10.0577 21.3751C11.4465 21.3751 12.5724 20.2492 12.5724 18.8603Z" fill="#C9C8C6"/>
</svg>
