<svg width="21" height="21" viewBox="0 0 21 21" fill="none" xmlns="http://www.w3.org/2000/svg">
<path d="M17.5937 3.01973C15.9084 1.33349 13.6906 0.283498 11.318 0.0490118C8.9455 -0.185463 6.56508 0.409999 4.58219 1.73388C2.59952 3.05761 1.13702 5.028 0.44405 7.30927C-0.248924 9.59034 -0.129464 12.0414 0.782033 14.2442C1.69355 16.447 3.34068 18.2661 5.44269 19.3905C7.54481 20.5151 9.97183 20.8761 12.3104 20.4121C14.649 19.9479 16.7544 18.6873 18.2673 16.845C19.7806 15.0028 20.6082 12.6927 20.6093 10.3086C20.6125 8.95464 20.3477 7.61344 19.8301 6.36237C19.3124 5.11134 18.5526 3.97554 17.5937 3.01973ZM16.6181 16.6225C15.5192 17.7728 14.133 18.6086 12.6028 19.0437C11.0727 19.4785 9.45424 19.4971 7.91468 19.097C6.37504 18.6969 4.97021 17.8931 3.84524 16.7682C2.72044 15.6433 1.91656 14.2384 1.51649 12.6988C1.11641 11.1591 1.13495 9.54069 1.56985 8.01062C2.00491 6.48047 2.84066 5.09436 3.99094 3.99534C5.08984 2.84504 6.47599 2.00929 8.0062 1.57423C9.53635 1.13933 11.1548 1.12076 12.6943 1.52086C14.234 1.92094 15.6388 2.72482 16.7638 3.84964C17.8886 4.97461 18.6925 6.37945 19.0925 7.9191C19.4926 9.45875 19.4741 11.0772 19.0392 12.6073C18.6041 14.1374 17.7684 15.5235 16.6181 16.6225ZM10.9917 8.93509V15.1665C10.9917 15.4118 10.8607 15.6386 10.6482 15.7613C10.4356 15.8841 10.1737 15.8841 9.96117 15.7613C9.74863 15.6386 9.61767 15.4118 9.61767 15.1665V8.93509C9.61767 8.68957 9.74863 8.46278 9.96117 8.3401C10.1737 8.21742 10.4356 8.21742 10.6482 8.3401C10.8607 8.46278 10.9917 8.68958 10.9917 8.93509ZM11.2183 5.50003C11.2183 5.74233 11.1222 5.97482 10.9507 6.1461C10.7794 6.31754 10.547 6.41369 10.3047 6.41369C10.0624 6.41369 9.8299 6.31754 9.65862 6.1461C9.48717 5.9748 9.39102 5.74233 9.39102 5.50003C9.39102 5.25773 9.48717 5.02525 9.65862 4.85397C9.82991 4.68252 10.0624 4.58637 10.3047 4.58637C10.5476 4.58453 10.781 4.68007 10.9529 4.85182C11.1246 5.02373 11.2202 5.2571 11.2183 5.50003Z" fill="#DC372F"/>
</svg>
